<!--?xml version="1.0" encoding="utf-8"?-->
<!-- Generator: Adobe Illustrator 18.1.1, SVG Export Plug-In . SVG Version: 6.00 Build 0)  -->

<svg version="1.1" id="_x32_" xmlns="http://www.w3.org/2000/svg" xmlns:xlink="http://www.w3.org/1999/xlink" x="0px" y="0px" viewBox="0 0 512 512" style="width: 256px; height: 256px; opacity: 1;" xml:space="preserve">
<style type="text/css">
	.st0{fill:#4B4B4B;}
</style>
<g>
	<path class="st0" d="M498.849,244.356c-18.764-3.175-79.75-17.856-79.75-17.856l29.752-7.152l-3.562-13.086
		c0,0,22.617-16.666,32.133-26.198c9.532-9.514,6.358-13.095-3.175-13.095c-9.533,0-34.91,1.19-65.87-3.562
		c-30.952-4.771-130.956-83.338-130.956-83.338c0-9.533-6.966-13.042-6.966-13.042v-9.637c11.578-13.501,5.537-33.28-14.462-33.28
		s-26.031,19.778-14.462,33.28v9.637c0,0-6.967,3.51-6.967,13.042c0,0-100.004,78.567-130.955,83.338
		c-30.951,4.752-56.338,3.562-65.87,3.562c-9.524,0-12.706,3.58-3.183,13.095c9.532,9.532,32.15,26.198,32.15,26.198l-3.571,13.086
		l29.761,7.152c0,0-60.976,14.681-79.768,17.856c-23.403,3.968-9.109,13.898-5.538,17.46c3.563,3.58,41.26,33.737,41.26,33.737
		h14.196v15.344H42.493L17.027,487.89h183.017v-56.496c0-30.907,25.052-55.95,55.95-55.95c30.906,0,55.959,25.043,55.959,55.95
		v56.496H494.96l-25.457-176.994H448.94v-15.344h14.196c0,0,37.706-30.157,41.277-33.737
		C507.985,258.254,522.279,248.324,498.849,244.356z M278.409,295.553v24.391h-44.83v-24.391v-50.606h44.83V295.553z" style="fill: rgb(29, 44, 103);"></path>
</g>
</svg>
